<mxfile host="app.diagrams.net" modified="2023-06-27T07:22:36.890Z" agent="Mozilla/5.0 (Windows NT 10.0; Win64; x64) AppleWebKit/537.36 (KHTML, like Gecko) Chrome/114.0.0.0 Safari/537.36" etag="KdFUx1qVKYb3t0lRrDWI" version="21.5.1" type="device">
  <diagram name="페이지-1" id="DKkFitC7D3pA0Rxg5cE1">
    <mxGraphModel dx="1086" dy="1123" grid="1" gridSize="10" guides="1" tooltips="1" connect="1" arrows="1" fold="1" page="1" pageScale="1" pageWidth="827" pageHeight="1169" math="0" shadow="0">
      <root>
        <mxCell id="0" />
        <mxCell id="1" parent="0" />
        <mxCell id="YfneBOb7cqC_NzscT1HJ-1" value="Actor" style="shape=umlActor;verticalLabelPosition=bottom;verticalAlign=top;html=1;" vertex="1" parent="1">
          <mxGeometry x="20" y="20" width="30" height="60" as="geometry" />
        </mxCell>
        <mxCell id="YfneBOb7cqC_NzscT1HJ-2" value="Use Case" style="ellipse;whiteSpace=wrap;html=1;" vertex="1" parent="1">
          <mxGeometry x="140" y="20" width="140" height="70" as="geometry" />
        </mxCell>
        <mxCell id="YfneBOb7cqC_NzscT1HJ-3" value="" style="endArrow=open;endFill=1;endSize=12;html=1;rounded=0;" edge="1" parent="1">
          <mxGeometry width="160" relative="1" as="geometry">
            <mxPoint x="40" y="120" as="sourcePoint" />
            <mxPoint x="200" y="120" as="targetPoint" />
          </mxGeometry>
        </mxCell>
        <mxCell id="YfneBOb7cqC_NzscT1HJ-4" value="&amp;lt;&amp;lt;include&amp;gt;&amp;gt;" style="endArrow=open;endSize=12;dashed=1;html=1;rounded=0;" edge="1" parent="1">
          <mxGeometry y="10" width="160" relative="1" as="geometry">
            <mxPoint x="40" y="160" as="sourcePoint" />
            <mxPoint x="200" y="160" as="targetPoint" />
            <mxPoint as="offset" />
          </mxGeometry>
        </mxCell>
        <mxCell id="YfneBOb7cqC_NzscT1HJ-5" value="&amp;lt;&amp;lt;extend&amp;gt;&amp;gt;" style="endArrow=open;endSize=12;dashed=1;html=1;rounded=0;" edge="1" parent="1">
          <mxGeometry y="10" width="160" relative="1" as="geometry">
            <mxPoint x="40" y="190" as="sourcePoint" />
            <mxPoint x="200" y="190" as="targetPoint" />
            <mxPoint as="offset" />
          </mxGeometry>
        </mxCell>
        <mxCell id="YfneBOb7cqC_NzscT1HJ-6" value="" style="endArrow=block;endSize=16;endFill=0;html=1;rounded=0;exitX=1;exitY=0.5;exitDx=0;exitDy=0;entryX=0.086;entryY=0.271;entryDx=0;entryDy=0;entryPerimeter=0;" edge="1" parent="1" source="YfneBOb7cqC_NzscT1HJ-28" target="YfneBOb7cqC_NzscT1HJ-30">
          <mxGeometry width="160" relative="1" as="geometry">
            <mxPoint x="564" y="580" as="sourcePoint" />
            <mxPoint x="724" y="580" as="targetPoint" />
          </mxGeometry>
        </mxCell>
        <mxCell id="YfneBOb7cqC_NzscT1HJ-7" value="규칙 1. 연관관계(실선화살표)는&lt;br&gt;&lt;span style=&quot;white-space: pre;&quot;&gt;&#x9;&lt;span style=&quot;white-space: pre;&quot;&gt;&#x9;&lt;/span&gt;&lt;/span&gt;액터-&amp;gt;유스케이스&lt;br&gt;&lt;span style=&quot;white-space: pre;&quot;&gt;&#x9;&lt;span style=&quot;white-space: pre;&quot;&gt;&#x9;&lt;/span&gt;&lt;/span&gt;유스케이스-&amp;gt;액터&lt;br&gt;&lt;span style=&quot;white-space: pre;&quot;&gt;&#x9;&lt;span style=&quot;white-space: pre;&quot;&gt;&#x9;&lt;/span&gt;&lt;/span&gt;위의 형식만 가능하다" style="text;html=1;align=left;verticalAlign=middle;resizable=0;points=[];autosize=1;strokeColor=none;fillColor=none;" vertex="1" parent="1">
          <mxGeometry x="376" width="190" height="70" as="geometry" />
        </mxCell>
        <mxCell id="YfneBOb7cqC_NzscT1HJ-8" value="Actor" style="shape=umlActor;verticalLabelPosition=bottom;verticalAlign=top;html=1;" vertex="1" parent="1">
          <mxGeometry x="406" y="95" width="30" height="60" as="geometry" />
        </mxCell>
        <mxCell id="YfneBOb7cqC_NzscT1HJ-9" value="Use Case" style="ellipse;whiteSpace=wrap;html=1;" vertex="1" parent="1">
          <mxGeometry x="516" y="90" width="140" height="70" as="geometry" />
        </mxCell>
        <mxCell id="YfneBOb7cqC_NzscT1HJ-10" value="" style="endArrow=open;endFill=1;endSize=12;html=1;rounded=0;entryX=0;entryY=0.5;entryDx=0;entryDy=0;" edge="1" parent="1" source="YfneBOb7cqC_NzscT1HJ-8" target="YfneBOb7cqC_NzscT1HJ-9">
          <mxGeometry width="160" relative="1" as="geometry">
            <mxPoint x="416" y="120" as="sourcePoint" />
            <mxPoint x="506" y="125" as="targetPoint" />
          </mxGeometry>
        </mxCell>
        <mxCell id="YfneBOb7cqC_NzscT1HJ-12" value="Use Case" style="ellipse;whiteSpace=wrap;html=1;" vertex="1" parent="1">
          <mxGeometry x="540" y="180" width="140" height="70" as="geometry" />
        </mxCell>
        <mxCell id="YfneBOb7cqC_NzscT1HJ-13" value="Actor" style="shape=umlActor;verticalLabelPosition=bottom;verticalAlign=top;html=1;" vertex="1" parent="1">
          <mxGeometry x="775" y="185" width="30" height="60" as="geometry" />
        </mxCell>
        <mxCell id="YfneBOb7cqC_NzscT1HJ-15" value="" style="endArrow=open;endFill=1;endSize=12;html=1;rounded=0;entryX=1;entryY=0.5;entryDx=0;entryDy=0;" edge="1" parent="1" source="YfneBOb7cqC_NzscT1HJ-13" target="YfneBOb7cqC_NzscT1HJ-12">
          <mxGeometry width="160" relative="1" as="geometry">
            <mxPoint x="685" y="170" as="sourcePoint" />
            <mxPoint x="765" y="170" as="targetPoint" />
          </mxGeometry>
        </mxCell>
        <mxCell id="YfneBOb7cqC_NzscT1HJ-18" value="규칙 2. 포함이나 확장 관계는&amp;nbsp;&lt;br&gt;&lt;span style=&quot;white-space: pre;&quot;&gt;&#x9;&lt;/span&gt;유스키이스 끼리만 가능하다" style="text;html=1;align=left;verticalAlign=middle;resizable=0;points=[];autosize=1;strokeColor=none;fillColor=none;" vertex="1" parent="1">
          <mxGeometry x="280" y="220" width="200" height="40" as="geometry" />
        </mxCell>
        <mxCell id="YfneBOb7cqC_NzscT1HJ-19" value="내 정보 조회" style="ellipse;whiteSpace=wrap;html=1;" vertex="1" parent="1">
          <mxGeometry x="294" y="290" width="140" height="70" as="geometry" />
        </mxCell>
        <mxCell id="YfneBOb7cqC_NzscT1HJ-20" value="로그인" style="ellipse;whiteSpace=wrap;html=1;" vertex="1" parent="1">
          <mxGeometry x="550" y="290" width="140" height="70" as="geometry" />
        </mxCell>
        <mxCell id="YfneBOb7cqC_NzscT1HJ-21" value="&amp;lt;&amp;lt;include&amp;gt;&amp;gt;" style="endArrow=open;endSize=12;dashed=1;html=1;rounded=0;entryX=0;entryY=0.5;entryDx=0;entryDy=0;exitX=1;exitY=0.5;exitDx=0;exitDy=0;" edge="1" parent="1" source="YfneBOb7cqC_NzscT1HJ-19" target="YfneBOb7cqC_NzscT1HJ-20">
          <mxGeometry y="10" width="160" relative="1" as="geometry">
            <mxPoint x="475" y="325" as="sourcePoint" />
            <mxPoint x="635" y="324.4100000000001" as="targetPoint" />
            <mxPoint as="offset" />
          </mxGeometry>
        </mxCell>
        <mxCell id="YfneBOb7cqC_NzscT1HJ-22" value="회원가입" style="ellipse;whiteSpace=wrap;html=1;" vertex="1" parent="1">
          <mxGeometry x="294" y="390" width="140" height="70" as="geometry" />
        </mxCell>
        <mxCell id="YfneBOb7cqC_NzscT1HJ-23" value="프로필 사진 등록" style="ellipse;whiteSpace=wrap;html=1;" vertex="1" parent="1">
          <mxGeometry x="550" y="390" width="140" height="70" as="geometry" />
        </mxCell>
        <mxCell id="YfneBOb7cqC_NzscT1HJ-25" value="&amp;lt;&amp;lt;extend&amp;gt;&amp;gt;" style="endArrow=open;endSize=12;dashed=1;html=1;rounded=0;entryX=1;entryY=0.5;entryDx=0;entryDy=0;exitX=0;exitY=0.5;exitDx=0;exitDy=0;" edge="1" parent="1" source="YfneBOb7cqC_NzscT1HJ-23" target="YfneBOb7cqC_NzscT1HJ-22">
          <mxGeometry y="10" width="160" relative="1" as="geometry">
            <mxPoint x="450" y="480" as="sourcePoint" />
            <mxPoint x="610" y="480" as="targetPoint" />
            <mxPoint as="offset" />
          </mxGeometry>
        </mxCell>
        <mxCell id="YfneBOb7cqC_NzscT1HJ-27" value="규칙 3. 일반화 관계는&amp;nbsp;&lt;br&gt;&lt;span style=&quot;white-space: pre;&quot;&gt;&#x9;&lt;/span&gt;액터끼리 유스케이프끼리만 가능" style="text;html=1;align=left;verticalAlign=middle;resizable=0;points=[];autosize=1;strokeColor=none;fillColor=none;" vertex="1" parent="1">
          <mxGeometry x="394" y="470" width="220" height="40" as="geometry" />
        </mxCell>
        <mxCell id="YfneBOb7cqC_NzscT1HJ-28" value="제목검색" style="ellipse;whiteSpace=wrap;html=1;" vertex="1" parent="1">
          <mxGeometry x="430" y="530" width="140" height="70" as="geometry" />
        </mxCell>
        <mxCell id="YfneBOb7cqC_NzscT1HJ-29" value="내용검색" style="ellipse;whiteSpace=wrap;html=1;" vertex="1" parent="1">
          <mxGeometry x="434" y="660" width="140" height="70" as="geometry" />
        </mxCell>
        <mxCell id="YfneBOb7cqC_NzscT1HJ-30" value="게시글검색" style="ellipse;whiteSpace=wrap;html=1;" vertex="1" parent="1">
          <mxGeometry x="680" y="600" width="140" height="70" as="geometry" />
        </mxCell>
        <mxCell id="YfneBOb7cqC_NzscT1HJ-31" value="" style="endArrow=block;endSize=16;endFill=0;html=1;rounded=0;exitX=1;exitY=0.5;exitDx=0;exitDy=0;" edge="1" parent="1" source="YfneBOb7cqC_NzscT1HJ-29" target="YfneBOb7cqC_NzscT1HJ-30">
          <mxGeometry width="160" relative="1" as="geometry">
            <mxPoint x="590" y="690" as="sourcePoint" />
            <mxPoint x="690" y="750" as="targetPoint" />
          </mxGeometry>
        </mxCell>
        <mxCell id="YfneBOb7cqC_NzscT1HJ-32" value="회원" style="shape=umlActor;verticalLabelPosition=bottom;verticalAlign=top;html=1;" vertex="1" parent="1">
          <mxGeometry x="405" y="780" width="30" height="60" as="geometry" />
        </mxCell>
        <mxCell id="YfneBOb7cqC_NzscT1HJ-33" value="비회원" style="shape=umlActor;verticalLabelPosition=bottom;verticalAlign=top;html=1;" vertex="1" parent="1">
          <mxGeometry x="408" y="890" width="30" height="60" as="geometry" />
        </mxCell>
        <mxCell id="YfneBOb7cqC_NzscT1HJ-34" value="사용자" style="shape=umlActor;verticalLabelPosition=bottom;verticalAlign=top;html=1;" vertex="1" parent="1">
          <mxGeometry x="555" y="835" width="30" height="60" as="geometry" />
        </mxCell>
        <mxCell id="YfneBOb7cqC_NzscT1HJ-38" value="" style="endArrow=block;endSize=16;endFill=0;html=1;rounded=0;" edge="1" parent="1" source="YfneBOb7cqC_NzscT1HJ-32" target="YfneBOb7cqC_NzscT1HJ-34">
          <mxGeometry width="160" relative="1" as="geometry">
            <mxPoint x="505" y="840" as="sourcePoint" />
            <mxPoint x="623" y="800" as="targetPoint" />
          </mxGeometry>
        </mxCell>
        <mxCell id="YfneBOb7cqC_NzscT1HJ-39" value="" style="endArrow=block;endSize=16;endFill=0;html=1;rounded=0;entryX=0.186;entryY=0.849;entryDx=0;entryDy=0;entryPerimeter=0;" edge="1" parent="1" source="YfneBOb7cqC_NzscT1HJ-33" target="YfneBOb7cqC_NzscT1HJ-34">
          <mxGeometry width="160" relative="1" as="geometry">
            <mxPoint x="445" y="822" as="sourcePoint" />
            <mxPoint x="716" y="868" as="targetPoint" />
          </mxGeometry>
        </mxCell>
        <mxCell id="YfneBOb7cqC_NzscT1HJ-41" value="공지 사항 조회" style="ellipse;whiteSpace=wrap;html=1;" vertex="1" parent="1">
          <mxGeometry x="675" y="830" width="140" height="70" as="geometry" />
        </mxCell>
        <mxCell id="YfneBOb7cqC_NzscT1HJ-43" value="" style="endArrow=open;endFill=1;endSize=12;html=1;rounded=0;entryX=-0.029;entryY=0.525;entryDx=0;entryDy=0;entryPerimeter=0;" edge="1" parent="1" source="YfneBOb7cqC_NzscT1HJ-34" target="YfneBOb7cqC_NzscT1HJ-41">
          <mxGeometry width="160" relative="1" as="geometry">
            <mxPoint x="820" y="820" as="sourcePoint" />
            <mxPoint x="725" y="820" as="targetPoint" />
          </mxGeometry>
        </mxCell>
        <mxCell id="YfneBOb7cqC_NzscT1HJ-49" value="" style="edgeStyle=orthogonalEdgeStyle;rounded=0;orthogonalLoop=1;jettySize=auto;html=1;" edge="1" parent="1" source="YfneBOb7cqC_NzscT1HJ-46" target="YfneBOb7cqC_NzscT1HJ-48">
          <mxGeometry relative="1" as="geometry" />
        </mxCell>
        <mxCell id="YfneBOb7cqC_NzscT1HJ-46" value="비회원&amp;nbsp;" style="shape=umlActor;verticalLabelPosition=bottom;verticalAlign=top;html=1;" vertex="1" parent="1">
          <mxGeometry x="20" y="1174" width="30" height="60" as="geometry" />
        </mxCell>
        <mxCell id="YfneBOb7cqC_NzscT1HJ-47" value="" style="endArrow=open;endFill=1;endSize=12;html=1;rounded=0;entryX=0;entryY=0.5;entryDx=0;entryDy=0;" edge="1" parent="1" source="YfneBOb7cqC_NzscT1HJ-46" target="YfneBOb7cqC_NzscT1HJ-48">
          <mxGeometry width="160" relative="1" as="geometry">
            <mxPoint x="60" y="1204" as="sourcePoint" />
            <mxPoint x="140" y="1203.6599999999999" as="targetPoint" />
          </mxGeometry>
        </mxCell>
        <mxCell id="YfneBOb7cqC_NzscT1HJ-48" value="회원가입" style="ellipse;whiteSpace=wrap;html=1;" vertex="1" parent="1">
          <mxGeometry x="140" y="1169" width="140" height="70" as="geometry" />
        </mxCell>
        <mxCell id="YfneBOb7cqC_NzscT1HJ-50" value="비회원은 회원가입을 할 수 있다" style="text;html=1;align=center;verticalAlign=middle;resizable=0;points=[];autosize=1;strokeColor=none;fillColor=none;" vertex="1" parent="1">
          <mxGeometry x="10" y="1254" width="190" height="30" as="geometry" />
        </mxCell>
        <mxCell id="YfneBOb7cqC_NzscT1HJ-52" value="이메일 인증&amp;nbsp;" style="ellipse;whiteSpace=wrap;html=1;" vertex="1" parent="1">
          <mxGeometry x="370" y="1169" width="140" height="70" as="geometry" />
        </mxCell>
        <mxCell id="YfneBOb7cqC_NzscT1HJ-56" value="&amp;lt;&amp;lt;include&amp;gt;&amp;gt;" style="endArrow=open;endSize=12;dashed=1;html=1;rounded=0;exitX=1;exitY=0.5;exitDx=0;exitDy=0;entryX=0;entryY=0.5;entryDx=0;entryDy=0;" edge="1" parent="1" source="YfneBOb7cqC_NzscT1HJ-48" target="YfneBOb7cqC_NzscT1HJ-52">
          <mxGeometry y="10" width="160" relative="1" as="geometry">
            <mxPoint x="240" y="1144" as="sourcePoint" />
            <mxPoint x="450" y="1204" as="targetPoint" />
            <mxPoint as="offset" />
          </mxGeometry>
        </mxCell>
        <mxCell id="YfneBOb7cqC_NzscT1HJ-58" value="Gmail서버" style="shape=umlActor;verticalLabelPosition=bottom;verticalAlign=top;html=1;" vertex="1" parent="1">
          <mxGeometry x="570" y="1179" width="30" height="60" as="geometry" />
        </mxCell>
        <mxCell id="YfneBOb7cqC_NzscT1HJ-60" value="" style="endArrow=open;endFill=1;endSize=12;html=1;rounded=0;exitX=1;exitY=0.5;exitDx=0;exitDy=0;entryX=0.5;entryY=0.5;entryDx=0;entryDy=0;entryPerimeter=0;" edge="1" parent="1" source="YfneBOb7cqC_NzscT1HJ-52" target="YfneBOb7cqC_NzscT1HJ-58">
          <mxGeometry width="160" relative="1" as="geometry">
            <mxPoint x="590" y="1199" as="sourcePoint" />
            <mxPoint x="670" y="1204" as="targetPoint" />
          </mxGeometry>
        </mxCell>
        <mxCell id="YfneBOb7cqC_NzscT1HJ-61" value="프로필 사진등록" style="ellipse;whiteSpace=wrap;html=1;" vertex="1" parent="1">
          <mxGeometry x="310" y="1239" width="140" height="70" as="geometry" />
        </mxCell>
        <mxCell id="YfneBOb7cqC_NzscT1HJ-62" value="&amp;lt;&amp;lt;extend&amp;gt;&amp;gt;" style="endArrow=open;endSize=12;dashed=1;html=1;rounded=0;entryX=0.769;entryY=0.924;entryDx=0;entryDy=0;exitX=0;exitY=0.5;exitDx=0;exitDy=0;entryPerimeter=0;" edge="1" parent="1" source="YfneBOb7cqC_NzscT1HJ-61" target="YfneBOb7cqC_NzscT1HJ-48">
          <mxGeometry y="10" width="160" relative="1" as="geometry">
            <mxPoint x="424" y="1284" as="sourcePoint" />
            <mxPoint x="308" y="1284" as="targetPoint" />
            <mxPoint as="offset" />
          </mxGeometry>
        </mxCell>
        <mxCell id="YfneBOb7cqC_NzscT1HJ-63" value="사용자" style="shape=umlActor;verticalLabelPosition=bottom;verticalAlign=top;html=1;" vertex="1" parent="1">
          <mxGeometry x="160" y="1339" width="30" height="60" as="geometry" />
        </mxCell>
        <mxCell id="YfneBOb7cqC_NzscT1HJ-68" value="" style="endArrow=block;endSize=16;endFill=0;html=1;rounded=0;" edge="1" parent="1" source="YfneBOb7cqC_NzscT1HJ-46" target="YfneBOb7cqC_NzscT1HJ-63">
          <mxGeometry width="160" relative="1" as="geometry">
            <mxPoint x="110" y="1324" as="sourcePoint" />
            <mxPoint x="228" y="1284" as="targetPoint" />
          </mxGeometry>
        </mxCell>
        <mxCell id="YfneBOb7cqC_NzscT1HJ-69" value="관리자" style="shape=umlActor;verticalLabelPosition=bottom;verticalAlign=top;html=1;" vertex="1" parent="1">
          <mxGeometry x="20" y="1339" width="30" height="60" as="geometry" />
        </mxCell>
        <mxCell id="YfneBOb7cqC_NzscT1HJ-70" value="" style="endArrow=block;endSize=16;endFill=0;html=1;rounded=0;" edge="1" parent="1" source="YfneBOb7cqC_NzscT1HJ-69" target="YfneBOb7cqC_NzscT1HJ-63">
          <mxGeometry width="160" relative="1" as="geometry">
            <mxPoint x="60" y="1225" as="sourcePoint" />
            <mxPoint x="250" y="1363" as="targetPoint" />
          </mxGeometry>
        </mxCell>
        <mxCell id="YfneBOb7cqC_NzscT1HJ-71" value="공지사항 조회" style="ellipse;whiteSpace=wrap;html=1;" vertex="1" parent="1">
          <mxGeometry x="330" y="1329" width="140" height="70" as="geometry" />
        </mxCell>
        <mxCell id="YfneBOb7cqC_NzscT1HJ-73" value="" style="endArrow=open;endFill=1;endSize=12;html=1;rounded=0;entryX=0;entryY=0.5;entryDx=0;entryDy=0;" edge="1" parent="1" source="YfneBOb7cqC_NzscT1HJ-63" target="YfneBOb7cqC_NzscT1HJ-71">
          <mxGeometry width="160" relative="1" as="geometry">
            <mxPoint x="270" y="1363.73" as="sourcePoint" />
            <mxPoint x="300" y="1364" as="targetPoint" />
          </mxGeometry>
        </mxCell>
        <mxCell id="YfneBOb7cqC_NzscT1HJ-80" value="회원" style="shape=umlActor;verticalLabelPosition=bottom;verticalAlign=top;html=1;" vertex="1" parent="1">
          <mxGeometry x="20" y="1572.5" width="30" height="60" as="geometry" />
        </mxCell>
        <mxCell id="YfneBOb7cqC_NzscT1HJ-81" value="" style="endArrow=block;endSize=16;endFill=0;html=1;rounded=0;" edge="1" parent="1" source="YfneBOb7cqC_NzscT1HJ-80" target="YfneBOb7cqC_NzscT1HJ-63">
          <mxGeometry width="160" relative="1" as="geometry">
            <mxPoint x="70" y="1484.5" as="sourcePoint" />
            <mxPoint x="177" y="1473.5" as="targetPoint" />
          </mxGeometry>
        </mxCell>
        <mxCell id="YfneBOb7cqC_NzscT1HJ-82" value="마이페이지&amp;nbsp;" style="ellipse;whiteSpace=wrap;html=1;" vertex="1" parent="1">
          <mxGeometry x="254" y="1524.5" width="80" height="65" as="geometry" />
        </mxCell>
        <mxCell id="YfneBOb7cqC_NzscT1HJ-83" value="" style="endArrow=open;endFill=1;endSize=12;html=1;rounded=0;entryX=0;entryY=0.5;entryDx=0;entryDy=0;" edge="1" target="YfneBOb7cqC_NzscT1HJ-82" parent="1" source="YfneBOb7cqC_NzscT1HJ-80">
          <mxGeometry width="160" relative="1" as="geometry">
            <mxPoint x="210" y="1567" as="sourcePoint" />
            <mxPoint x="320" y="1585" as="targetPoint" />
          </mxGeometry>
        </mxCell>
        <mxCell id="YfneBOb7cqC_NzscT1HJ-86" value="내정보조회" style="ellipse;whiteSpace=wrap;html=1;" vertex="1" parent="1">
          <mxGeometry x="396" y="1430" width="100" height="70" as="geometry" />
        </mxCell>
        <mxCell id="YfneBOb7cqC_NzscT1HJ-87" value="내가 좋아요 누른 게시글 조회" style="ellipse;whiteSpace=wrap;html=1;" vertex="1" parent="1">
          <mxGeometry x="440" y="1520" width="100" height="65" as="geometry" />
        </mxCell>
        <mxCell id="YfneBOb7cqC_NzscT1HJ-88" value="회원 탈퇴" style="ellipse;whiteSpace=wrap;html=1;" vertex="1" parent="1">
          <mxGeometry x="416" y="1619" width="100" height="65" as="geometry" />
        </mxCell>
        <mxCell id="YfneBOb7cqC_NzscT1HJ-91" value="&amp;lt;&amp;lt;extend&amp;gt;&amp;gt;" style="endArrow=open;endSize=12;dashed=1;html=1;rounded=0;entryX=1;entryY=0;entryDx=0;entryDy=0;exitX=0;exitY=0.5;exitDx=0;exitDy=0;" edge="1" parent="1" source="YfneBOb7cqC_NzscT1HJ-86" target="YfneBOb7cqC_NzscT1HJ-82">
          <mxGeometry y="10" width="160" relative="1" as="geometry">
            <mxPoint x="430" y="1513.5" as="sourcePoint" />
            <mxPoint x="314" y="1513.5" as="targetPoint" />
            <mxPoint as="offset" />
            <Array as="points" />
          </mxGeometry>
        </mxCell>
        <mxCell id="YfneBOb7cqC_NzscT1HJ-93" value="&amp;lt;&amp;lt;extend&amp;gt;&amp;gt;" style="endArrow=open;endSize=12;dashed=1;html=1;rounded=0;entryX=0.975;entryY=0.623;entryDx=0;entryDy=0;exitX=0;exitY=0.5;exitDx=0;exitDy=0;entryPerimeter=0;" edge="1" parent="1" source="YfneBOb7cqC_NzscT1HJ-87" target="YfneBOb7cqC_NzscT1HJ-82">
          <mxGeometry y="10" width="160" relative="1" as="geometry">
            <mxPoint x="365.5" y="1566.3" as="sourcePoint" />
            <mxPoint x="304.5" y="1588.3" as="targetPoint" />
            <mxPoint as="offset" />
            <Array as="points" />
          </mxGeometry>
        </mxCell>
        <mxCell id="YfneBOb7cqC_NzscT1HJ-94" value="&amp;lt;&amp;lt;extend&amp;gt;&amp;gt;" style="endArrow=open;endSize=12;dashed=1;html=1;rounded=0;entryX=0.65;entryY=0.962;entryDx=0;entryDy=0;exitX=0.06;exitY=0.308;exitDx=0;exitDy=0;exitPerimeter=0;entryPerimeter=0;" edge="1" parent="1" source="YfneBOb7cqC_NzscT1HJ-88" target="YfneBOb7cqC_NzscT1HJ-82">
          <mxGeometry y="10" width="160" relative="1" as="geometry">
            <mxPoint x="377" y="1679.5" as="sourcePoint" />
            <mxPoint x="314.5" y="1659.7" as="targetPoint" />
            <mxPoint as="offset" />
            <Array as="points" />
          </mxGeometry>
        </mxCell>
        <mxCell id="YfneBOb7cqC_NzscT1HJ-96" value="자유게시판&lt;br&gt;목록조회" style="ellipse;whiteSpace=wrap;html=1;" vertex="1" parent="1">
          <mxGeometry x="264" y="1704.5" width="80" height="65" as="geometry" />
        </mxCell>
        <mxCell id="YfneBOb7cqC_NzscT1HJ-97" value="자유게시판&lt;br&gt;상세조회" style="ellipse;whiteSpace=wrap;html=1;" vertex="1" parent="1">
          <mxGeometry x="254" y="1784.5" width="80" height="65" as="geometry" />
        </mxCell>
        <mxCell id="YfneBOb7cqC_NzscT1HJ-98" value="자유게시판&lt;br&gt;글작성" style="ellipse;whiteSpace=wrap;html=1;" vertex="1" parent="1">
          <mxGeometry x="254" y="1854.5" width="80" height="65" as="geometry" />
        </mxCell>
        <mxCell id="YfneBOb7cqC_NzscT1HJ-103" value="" style="endArrow=open;endFill=1;endSize=12;html=1;rounded=0;" edge="1" parent="1" source="YfneBOb7cqC_NzscT1HJ-80" target="YfneBOb7cqC_NzscT1HJ-96">
          <mxGeometry width="160" relative="1" as="geometry">
            <mxPoint x="50" y="1678.83" as="sourcePoint" />
            <mxPoint x="150" y="1676.83" as="targetPoint" />
          </mxGeometry>
        </mxCell>
        <mxCell id="YfneBOb7cqC_NzscT1HJ-104" value="" style="endArrow=open;endFill=1;endSize=12;html=1;rounded=0;entryX=-0.014;entryY=0.345;entryDx=0;entryDy=0;entryPerimeter=0;" edge="1" parent="1" source="YfneBOb7cqC_NzscT1HJ-80" target="YfneBOb7cqC_NzscT1HJ-97">
          <mxGeometry width="160" relative="1" as="geometry">
            <mxPoint x="50" y="1720.5" as="sourcePoint" />
            <mxPoint x="150" y="1808.5" as="targetPoint" />
          </mxGeometry>
        </mxCell>
        <mxCell id="YfneBOb7cqC_NzscT1HJ-105" value="" style="endArrow=open;endFill=1;endSize=12;html=1;rounded=0;entryX=0.058;entryY=0.334;entryDx=0;entryDy=0;entryPerimeter=0;" edge="1" parent="1" source="YfneBOb7cqC_NzscT1HJ-80" target="YfneBOb7cqC_NzscT1HJ-98">
          <mxGeometry width="160" relative="1" as="geometry">
            <mxPoint x="55" y="1732.57" as="sourcePoint" />
            <mxPoint x="149" y="1894" as="targetPoint" />
          </mxGeometry>
        </mxCell>
        <mxCell id="YfneBOb7cqC_NzscT1HJ-106" value="게시글 수정" style="ellipse;whiteSpace=wrap;html=1;" vertex="1" parent="1">
          <mxGeometry x="452" y="1748.5" width="80" height="65" as="geometry" />
        </mxCell>
        <mxCell id="YfneBOb7cqC_NzscT1HJ-107" value="게시글 삭제" style="ellipse;whiteSpace=wrap;html=1;" vertex="1" parent="1">
          <mxGeometry x="452" y="1824.5" width="80" height="65" as="geometry" />
        </mxCell>
        <mxCell id="YfneBOb7cqC_NzscT1HJ-109" value="&amp;lt;&amp;lt;extend&amp;gt;&amp;gt;" style="endArrow=open;endSize=12;dashed=1;html=1;rounded=0;" edge="1" parent="1" source="YfneBOb7cqC_NzscT1HJ-106" target="YfneBOb7cqC_NzscT1HJ-97">
          <mxGeometry y="10" width="160" relative="1" as="geometry">
            <mxPoint x="410" y="1666.97" as="sourcePoint" />
            <mxPoint x="294" y="1614.97" as="targetPoint" />
            <mxPoint as="offset" />
            <Array as="points" />
          </mxGeometry>
        </mxCell>
        <mxCell id="YfneBOb7cqC_NzscT1HJ-112" value="&amp;lt;&amp;lt;extend&amp;gt;&amp;gt;" style="endArrow=open;endSize=12;dashed=1;html=1;rounded=0;exitX=-0.017;exitY=0.577;exitDx=0;exitDy=0;exitPerimeter=0;entryX=0.989;entryY=0.59;entryDx=0;entryDy=0;entryPerimeter=0;" edge="1" parent="1" source="YfneBOb7cqC_NzscT1HJ-107" target="YfneBOb7cqC_NzscT1HJ-97">
          <mxGeometry y="10" width="160" relative="1" as="geometry">
            <mxPoint x="444" y="1886.5" as="sourcePoint" />
            <mxPoint x="328" y="1834.5" as="targetPoint" />
            <mxPoint as="offset" />
            <Array as="points" />
          </mxGeometry>
        </mxCell>
        <mxCell id="YfneBOb7cqC_NzscT1HJ-113" value="" style="endArrow=open;endFill=1;endSize=12;html=1;rounded=0;entryX=0.43;entryY=0.015;entryDx=0;entryDy=0;entryPerimeter=0;" edge="1" target="YfneBOb7cqC_NzscT1HJ-114" parent="1" source="YfneBOb7cqC_NzscT1HJ-80">
          <mxGeometry width="160" relative="1" as="geometry">
            <mxPoint x="30" y="1660" as="sourcePoint" />
            <mxPoint x="-51" y="1841.5" as="targetPoint" />
          </mxGeometry>
        </mxCell>
        <mxCell id="YfneBOb7cqC_NzscT1HJ-114" value="로그인" style="ellipse;whiteSpace=wrap;html=1;" vertex="1" parent="1">
          <mxGeometry x="10" y="1830" width="80" height="65" as="geometry" />
        </mxCell>
      </root>
    </mxGraphModel>
  </diagram>
</mxfile>
